<?xml version="1.0" encoding="utf-8"?>
<!-- Generator: Adobe Illustrator 16.0.0, SVG Export Plug-In . SVG Version: 6.00 Build 0)  -->
<!DOCTYPE svg [
	<!ENTITY ns_extend "http://ns.adobe.com/Extensibility/1.0/">
	<!ENTITY ns_ai "http://ns.adobe.com/AdobeIllustrator/10.0/">
	<!ENTITY ns_graphs "http://ns.adobe.com/Graphs/1.0/">
	<!ENTITY ns_vars "http://ns.adobe.com/Variables/1.0/">
	<!ENTITY ns_imrep "http://ns.adobe.com/ImageReplacement/1.0/">
	<!ENTITY ns_sfw "http://ns.adobe.com/SaveForWeb/1.0/">
	<!ENTITY ns_custom "http://ns.adobe.com/GenericCustomNamespace/1.0/">
	<!ENTITY ns_adobe_xpath "http://ns.adobe.com/XPath/1.0/">
]>
<svg version="1.2" baseProfile="tiny" id="Layer_1" xmlns:x="&ns_extend;" xmlns:i="&ns_ai;" xmlns:graph="&ns_graphs;"
	 xmlns="http://www.w3.org/2000/svg" xmlns:xlink="http://www.w3.org/1999/xlink" x="0px" y="0px" width="2500px" height="2031px"
	 viewBox="0 0 2500 2031" xml:space="preserve">
<metadata>
	<sfw  xmlns="&ns_sfw;">
		<slices></slices>
		<sliceSourceBounds  height="2030.374" width="2498.98" x="-1065.24" y="-972.437" bottomLeftOrigin="true"></sliceSourceBounds>
	</sfw>
</metadata>
<path fill="#007CC2" stroke="#5DA8DC" stroke-width="0.5" d="M1669.918,0.764V0.313h117.151l42.806,8.562
	c28.537,5.558,54.446,12.842,77.726,21.854c23.281,9.012,45.811,19.525,67.587,31.54c21.779,12.016,41.53,24.258,59.254,36.723
	c17.572,12.317,33.343,25.384,47.312,39.201c13.814,13.968,35.368,17.572,64.656,10.813c29.287-6.759,60.828-16.146,94.622-28.161
	c33.793-12.015,67.213-25.532,100.254-40.553c33.044-15.02,53.172-24.557,60.381-28.611c7.059-4.204,10.814-6.457,11.265-6.759
	l0.448-0.676l2.253-1.127l2.253-1.126l2.253-1.127l2.253-1.126l0.45-0.676l0.677-0.451l0.678-0.45l0.448-0.676l2.253-0.676
	l2.253-0.451l-0.448,3.38l-0.678,3.379l-1.127,3.38l-1.127,3.379l-1.126,2.253l-1.126,2.253l-1.127,3.38
	c-0.75,2.252-1.5,5.256-2.253,9.011c-0.751,3.756-7.886,18.774-21.403,45.059c-13.518,26.285-30.414,52.943-50.689,79.979
	c-20.277,27.035-38.449,47.46-54.519,61.279c-16.222,13.968-26.96,23.729-32.219,29.288c-5.256,5.706-11.639,10.962-19.15,15.77
	l-11.265,7.436l-2.252,1.126l-2.253,1.126l-0.448,0.676l-0.679,0.451l-0.676,0.45l-0.45,0.676l-2.253,1.127l-2.253,1.126
	l-0.448,0.676l-0.679,0.451l-0.676,0.45l-0.45,0.676l-0.448,0.676l-0.679,0.451l-0.676,0.45l-0.45,0.676h11.265l63.081-13.517
	c42.055-9.012,82.231-19.9,120.531-32.668l60.828-20.276l6.759-2.253l3.38-1.126l2.252-1.127l2.254-1.126l2.252-1.126l2.254-1.127
	l4.506-0.676l4.506-0.45v4.505l-1.127,0.451l-1.127,0.676l-0.447,0.676l-0.679,0.45l-0.677,0.451l-0.449,0.676l-0.449,0.676
	l-0.678,0.45l-0.676,0.451l-0.451,0.676l-0.447,0.676l-0.679,0.45l-1.126,2.253l-1.127,2.253l-0.676,0.451
	c-0.301,0.45-9.836,13.216-28.612,38.299c-18.773,25.232-28.911,37.998-30.414,38.3c-1.501,0.45-3.604,2.703-6.309,6.759
	c-2.552,4.204-18.474,20.952-47.761,50.24c-29.289,29.287-57.973,55.345-86.06,78.176c-28.235,22.979-42.506,51.215-42.806,84.709
	c-0.45,33.344-2.178,71.044-5.184,113.097c-3.003,42.055-8.636,87.487-16.896,136.301c-8.26,48.814-21.027,104.011-38.3,165.589
	c-17.271,61.579-38.3,121.657-63.082,180.233c-24.781,58.575-50.69,111.143-77.726,157.704
	c-27.034,46.561-51.816,85.986-74.346,118.277s-45.432,62.705-68.714,91.243c-23.279,28.538-52.716,60.68-88.312,96.425
	c-35.747,35.596-55.271,55.122-58.576,58.575c-3.453,3.306-18.172,15.622-44.159,36.948c-25.832,21.477-53.619,42.954-83.357,64.433
	c-29.588,21.329-56.773,39.127-81.556,53.395s-54.669,30.563-89.666,48.888c-34.844,18.475-72.544,35.597-113.096,51.367
	c-40.553,15.77-83.358,30.414-128.416,43.932c-45.059,13.518-88.614,24.031-130.669,31.541
	c-42.053,7.509-89.74,13.894-143.06,19.149l-79.979,7.885v1.127H714.684v-1.127l-19.15-1.126c-12.765-0.75-23.279-1.503-31.54-2.253
	c-8.26-0.751-39.426-4.882-93.496-12.392c-54.07-7.509-96.499-15.02-127.289-22.528c-30.789-7.51-76.6-21.779-137.428-42.806
	s-112.871-42.28-156.126-63.758c-43.105-21.328-70.14-34.846-81.105-40.552c-10.814-5.559-22.98-12.466-36.497-20.728
	l-20.276-12.391l-0.448-0.676l-0.678-0.451l-0.676-0.45l-0.451-0.676l-2.253-1.126l-2.253-1.127l-0.448-0.676l-0.678-0.45
	l-0.676-0.451l-0.451-0.676l-0.448-0.676l-0.678-0.45H0.51v-4.506l2.253,0.45l2.253,0.676l10.138,1.127
	c6.759,0.75,25.158,1.876,55.196,3.379c30.041,1.503,61.955,1.503,95.749,0c33.793-1.503,68.34-4.882,103.634-10.138
	c35.296-5.256,76.975-14.268,125.037-27.035c48.064-12.768,92.22-27.937,132.473-45.509c40.103-17.722,68.638-30.939,85.611-39.651
	c16.819-8.561,42.503-24.482,77.047-47.762l51.817-34.92l0.45-0.676l0.676-0.451l0.679-0.45l0.448-0.676l0.45-0.676l0.676-0.451
	l0.678-0.45l0.449-0.676l2.253-0.676l2.253-0.451l0.45-2.253l0.676-2.253l0.678-0.45l0.448-0.676l-18.022-1.127
	c-12.015-0.75-23.656-1.502-34.921-2.253c-11.264-0.75-28.911-4.129-52.943-10.138c-24.029-6.009-49.938-15.021-77.725-27.035
	c-27.785-12.015-54.82-26.284-81.105-42.806c-26.282-16.521-45.283-30.266-56.998-41.228c-11.564-10.816-26.585-26.134-45.059-45.96
	c-18.323-19.975-34.244-40.478-47.762-61.504s-26.434-45.286-38.748-72.77l-18.701-41.003l-1.126-3.379l-1.126-3.38l-0.676-2.253
	l-0.451-2.253l3.379,0.451l3.379,0.676l24.782,3.379c16.523,2.253,42.432,3.004,77.726,2.253c35.296-0.75,59.702-2.253,73.22-4.506
	s21.778-3.755,24.782-4.506l4.506-1.126l5.632-1.127l5.633-1.126l0.45-0.676l0.676-0.451l0.678-0.45l0.449-0.676l-4.506-1.127
	l-4.506-1.126l-4.506-1.127l-4.506-1.126l-4.506-1.127c-3.003-0.75-8.26-2.253-15.771-4.506
	c-7.509-2.253-27.785-10.514-60.829-24.781c-33.041-14.268-59.326-28.162-78.852-41.68c-19.574-13.557-38.239-28.382-55.872-44.382
	c-17.573-16.221-36.871-37.099-57.9-62.631c-21.026-25.532-39.8-55.196-56.323-88.99c-16.521-33.794-28.912-66.085-37.173-96.875
	c-8.228-30.609-13.657-61.903-16.219-93.496l-4.057-47.312l2.253,0.451l2.253,0.676l2.253,1.126l2.253,1.127l2.253,1.126
	l2.252,1.127l34.92,15.771c23.282,10.514,52.193,19.525,86.737,27.035c34.546,7.509,55.197,11.641,61.956,12.391l10.138,1.126
	h20.276l-0.448-0.676l-0.678-0.45l-0.676-0.45l-0.451-0.676l-0.448-0.677l-0.678-0.45l-0.676-0.45l-0.451-0.677l-2.253-1.126
	l-2.253-1.126l-0.448-0.677l-0.678-0.45l-0.676-0.45l-0.451-0.676l-2.253-1.127l-2.253-1.126l-0.448-0.676
	c-0.451-0.303-6.91-5.107-19.377-14.419c-12.316-9.463-25.232-21.702-38.75-36.723s-27.035-30.79-40.552-47.312
	c-13.542-16.559-25.604-34.274-36.047-52.943c-10.512-18.773-21.628-42.656-33.343-71.643
	c-11.564-28.837-20.351-57.899-26.359-87.188c-6.006-29.288-9.385-58.199-10.138-86.737c-0.75-28.537,0-52.943,2.253-73.219
	c2.253-20.276,6.758-43.182,13.517-68.714s16.523-52.567,29.288-81.105l19.15-42.805l1.126-3.38l1.127-3.379l0.678-0.451
	l0.448-0.676l0.451-0.676l0.676-0.45l0.678,0.45l0.448,0.676l0.451,0.676l0.676,0.451l0.678,0.45l0.448,0.676l0.451,0.676
	l0.676,0.451l1.126,2.253l1.126,2.253l0.678,0.45l0.448,0.676l30.415,33.794c20.276,22.529,44.308,47.688,72.093,75.473
	c27.787,27.785,43.181,42.203,46.185,43.256c3.005,1.2,6.759,4.654,11.265,10.363c4.506,5.558,19.526,18.85,45.058,39.877
	c25.535,21.025,58.952,45.434,100.254,73.219c41.305,27.785,87.113,55.196,137.428,82.231c50.316,27.035,104.387,51.44,162.21,73.22
	c57.825,21.779,98.378,36.047,121.657,42.806c23.281,6.759,63.081,15.394,119.404,25.908
	c56.322,10.515,98.754,17.272,127.289,20.276c28.538,3.003,48.063,4.73,58.576,5.182l15.771,0.45l-0.448-3.379l-0.679-3.38
	l-4.506-28.161c-3.003-18.773-4.506-45.059-4.506-78.852c0-33.794,2.629-64.959,7.886-93.496
	c5.258-28.538,13.144-57.449,23.655-86.737c10.515-29.287,20.804-52.795,30.865-70.516c10.215-17.573,23.581-37.624,40.102-60.153
	c16.522-22.528,37.926-45.809,64.208-69.84c26.284-24.032,56.322-45.435,90.116-64.208s64.961-33.044,93.496-42.806
	c28.537-9.762,52.569-16.146,72.093-19.149C1660.156,2.943,1669.918,1.214,1669.918,0.764z"/>
<path fill="#FFFFFF" stroke="#FFFFFF" stroke-width="0.5" d="M0.51,899.225V0.313h1669.408v0.451c0,0.45-9.762,2.176-29.288,5.182
	c-19.523,3.003-43.556,9.388-72.093,19.149c-28.535,9.762-59.702,24.032-93.496,42.806s-63.832,40.176-90.116,64.208
	c-26.282,24.031-47.686,47.312-64.208,69.84c-16.521,22.529-29.887,42.58-40.102,60.153c-10.062,17.721-20.351,41.229-30.865,70.516
	c-10.512,29.288-18.397,58.199-23.655,86.737c-5.257,28.537-7.886,59.702-7.886,93.496c0,33.793,1.503,60.078,4.506,78.852
	l4.506,28.161l0.679,3.38l0.448,3.379l-15.771-0.45c-10.513-0.451-30.038-2.177-58.576-5.182
	c-28.535-3.004-70.967-9.762-127.289-20.276c-56.323-10.515-96.123-19.149-119.404-25.908
	C884.028,568.047,843.476,553.78,785.65,532c-57.823-21.779-111.894-46.185-162.21-73.22
	c-50.314-27.035-96.123-54.446-137.428-82.231c-41.303-27.785-74.72-52.193-100.254-73.219
	c-25.532-21.027-40.552-34.319-45.058-39.877c-4.506-5.707-8.259-9.16-11.265-10.363c-3.003-1.053-18.397-15.471-46.185-43.256
	c-27.785-27.785-51.817-52.943-72.093-75.473l-30.415-33.794l-0.448-0.676l-0.678-0.45l-1.126-2.253l-1.126-2.253l-0.676-0.451
	l-0.451-0.676l-0.448-0.676l-0.678-0.45l-0.676-0.451l-0.451-0.676l-0.448-0.676l-0.678-0.45l-0.676,0.45l-0.451,0.676l-0.448,0.676
	l-0.678,0.451l-1.127,3.379l-1.126,3.38l-19.15,42.805c-12.765,28.538-22.529,55.573-29.288,81.105s-11.264,48.438-13.517,68.714
	c-2.253,20.275-3.003,44.682-2.253,73.219c0.752,28.538,4.132,57.449,10.138,86.737c6.009,29.288,14.795,58.351,26.359,87.188
	c11.715,28.986,22.831,52.867,33.343,71.643c10.515,18.773,22.529,36.423,36.047,52.943c13.518,16.521,27.035,32.291,40.552,47.312
	s26.434,27.26,38.75,36.723c12.465,9.313,18.925,14.119,19.377,14.418l0.448,0.677l2.253,1.126l2.253,1.126l0.451,0.676l0.676,0.451
	l0.678,0.45l0.448,0.676l2.253,1.127l2.253,1.126l0.451,0.676l0.676,0.451l0.678,0.45l0.448,0.676l0.451,0.677l0.676,0.45
	l0.678,0.45l0.448,0.676h-20.276l-10.138-1.126c-6.759-0.75-27.409-4.882-61.956-12.392c-34.543-7.509-63.455-16.521-86.737-27.034
	l-34.92-15.771l-2.252-1.127l-2.253-1.126l-2.253-1.127l-2.253-1.126l-2.253-0.676l-2.253-0.451l4.057,47.312
	c2.553,31.541,7.96,62.705,16.219,93.496c8.262,30.79,20.653,63.081,37.173,96.875c16.523,33.794,35.296,63.458,56.323,88.99
	c21.029,25.532,40.327,46.41,57.9,62.631c17.633,15.999,36.298,30.825,55.872,44.382c19.526,13.518,45.811,27.412,78.852,41.68
	c33.044,14.268,53.32,22.528,60.829,24.781c7.511,2.253,12.767,3.756,15.771,4.506l4.506,1.127l4.506,1.126l4.506,1.127l4.506,1.126
	l4.506,1.127l-0.449,0.676l-0.678,0.45l-0.676,0.451l-0.45,0.676l-5.633,1.126l-5.632,1.127l-4.506,1.126
	c-3.004,0.751-11.265,2.253-24.782,4.506s-37.924,3.756-73.22,4.506c-35.294,0.751-61.203,0-77.726-2.253l-24.782-3.379
	l-3.379-0.676l-3.379-0.451l0.451,2.253l0.676,2.253l1.126,3.38l1.126,3.379l18.701,41.003c12.313,27.483,25.23,51.743,38.748,72.77
	s29.438,41.53,47.762,61.504c18.474,19.828,33.494,35.146,45.059,45.96c11.715,10.963,30.716,24.707,56.998,41.228
	c26.285,16.521,53.32,30.791,81.105,42.806c27.787,12.015,53.695,21.026,77.725,27.035c24.032,6.009,41.68,9.388,52.943,10.138
	c11.265,0.751,22.906,1.503,34.921,2.253l18.022,1.127l-0.448,0.676l-0.678,0.45l-0.676,2.253l-0.45,2.253l-2.253,0.451
	l-2.253,0.676l-0.449,0.676l-0.678,0.45l-0.676,0.451l-0.45,0.676l-0.448,0.676l-0.679,0.45l-0.676,0.451l-0.45,0.676l-51.817,34.92
	c-34.544,23.279-60.228,39.201-77.047,47.762c-16.974,8.71-45.509,21.928-85.611,39.651
	c-40.253,17.572-84.409,32.741-132.473,45.509c-48.062,12.768-89.74,21.779-125.037,27.035
	c-35.294,5.256-69.84,8.635-103.634,10.138c-33.794,1.503-65.708,1.503-95.749,0c-30.038-1.503-48.438-2.629-55.196-3.379
	l-10.138-1.127l-2.253-0.676l-2.253-0.45V899.225z M2496.289,247.683l0.447-0.676l1.127-0.676l1.127-0.451v1784.307H861.123v-1.127
	l79.979-7.885c53.319-5.256,101.007-11.641,143.06-19.149c42.055-7.51,85.61-18.023,130.669-31.541
	c45.058-13.518,87.863-28.162,128.416-43.932c40.552-15.771,78.252-32.893,113.096-51.367c34.997-18.324,64.884-34.62,89.666-48.888
	s51.968-32.065,81.556-53.395c29.738-21.477,57.525-42.954,83.357-64.433c25.985-21.328,40.703-33.646,44.159-36.948
	c3.306-3.453,22.829-22.979,58.576-58.575c35.596-35.745,65.032-67.887,88.312-96.425c23.282-28.538,46.185-58.952,68.714-91.243
	s47.312-71.717,74.346-118.277c27.035-46.562,52.944-99.129,77.726-157.704c24.782-58.576,45.812-118.654,63.082-180.233
	c17.272-61.578,30.04-116.774,38.3-165.589c8.261-48.813,13.894-94.246,16.896-136.301c3.005-42.056,4.733-79.753,5.184-113.097
	c0.3-33.491,14.57-61.729,42.806-84.709c28.087-22.831,56.771-48.889,86.06-78.176c29.287-29.288,45.209-46.036,47.761-50.24
	c2.704-4.056,4.808-6.309,6.309-6.759c1.503-0.302,11.641-13.067,30.414-38.299c18.776-25.084,28.313-37.85,28.612-38.3l0.676-0.451
	l1.127-2.253l1.126-2.253l0.679-0.45l0.447-0.676l0.451-0.676l0.676-0.451l0.678-0.45l0.449-0.676l0.449-0.676l0.677-0.45
	L2496.289,247.683L2496.289,247.683z M1829.875,8.874l-42.806-8.562h711.921v241.063l-4.506,0.45l-4.506,0.676l-2.254,1.127
	l-2.252,1.126l-2.254,1.126l-2.252,1.127l-3.38,1.126l-6.759,2.253L2410,270.662c-38.3,12.768-78.477,23.656-120.531,32.668
	l-63.081,13.517h-11.265l0.45-0.676l0.676-0.45l0.679-0.451l0.448-0.676l0.45-0.676l0.676-0.45l0.679-0.451l0.448-0.676l2.253-1.126
	l2.253-1.127l0.45-0.676l0.676-0.45l0.679-0.451l0.448-0.676l2.253-1.126l2.252-1.126l11.265-7.436
	c7.512-4.808,13.895-10.063,19.15-15.77c5.258-5.559,15.997-15.32,32.219-29.288c16.067-13.819,34.241-34.244,54.519-61.279
	c20.275-27.035,37.172-53.693,50.689-79.979c13.518-26.284,20.652-41.303,21.403-45.059c0.753-3.755,1.503-6.759,2.253-9.011
	l1.127-3.38l1.126-2.253l1.126-2.253l1.127-3.379l1.127-3.38l0.678-3.379l0.448-3.38l-2.253,0.451l-2.253,0.676l-0.448,0.676
	l-0.678,0.45l-0.677,0.451l-0.45,0.676l-2.253,1.126l-2.253,1.127l-2.253,1.126l-2.253,1.127l-0.448,0.676
	c-0.45,0.302-4.206,2.555-11.265,6.759c-7.209,4.055-27.337,13.594-60.381,28.611c-33.041,15.021-66.461,28.538-100.254,40.553
	c-33.794,12.015-65.335,21.402-94.622,28.161c-29.288,6.759-50.84,3.154-64.656-10.813c-13.969-13.819-29.739-26.887-47.312-39.201
	c-17.724-12.465-37.475-24.705-59.254-36.723c-21.793-12.022-44.374-22.561-67.587-31.54
	C1884.321,21.716,1858.412,14.432,1829.875,8.874z M0.51,1916.414v-113.771h1.126l0.678,0.45l0.448,0.676l0.451,0.676l0.676,0.451
	l0.678,0.45l0.448,0.676l2.253,1.127l2.253,1.126l0.451,0.676l0.676,0.45l0.678,0.451l0.448,0.676l20.276,12.391
	c13.517,8.262,25.683,15.169,36.497,20.728c10.965,5.706,38,19.224,81.105,40.552c43.256,21.478,95.298,42.731,156.126,63.758
	s106.639,35.296,137.428,42.806c30.79,7.509,73.219,15.02,127.289,22.528c54.07,7.51,85.236,11.641,93.496,12.392
	c8.261,0.75,18.775,1.503,31.54,2.253l19.15,1.126v1.127H0.51V1916.414z"/>
</svg>
