<?xml version="1.0" encoding="utf-8"?>
<!-- Generator: Adobe Illustrator 16.0.0, SVG Export Plug-In . SVG Version: 6.00 Build 0)  -->
<!DOCTYPE svg [
	<!ENTITY ns_extend "http://ns.adobe.com/Extensibility/1.0/">
	<!ENTITY ns_ai "http://ns.adobe.com/AdobeIllustrator/10.0/">
	<!ENTITY ns_graphs "http://ns.adobe.com/Graphs/1.0/">
	<!ENTITY ns_vars "http://ns.adobe.com/Variables/1.0/">
	<!ENTITY ns_imrep "http://ns.adobe.com/ImageReplacement/1.0/">
	<!ENTITY ns_sfw "http://ns.adobe.com/SaveForWeb/1.0/">
	<!ENTITY ns_custom "http://ns.adobe.com/GenericCustomNamespace/1.0/">
	<!ENTITY ns_adobe_xpath "http://ns.adobe.com/XPath/1.0/">
]>
<svg version="1.2" baseProfile="tiny" id="Layer_1" xmlns:x="&ns_extend;" xmlns:i="&ns_ai;" xmlns:graph="&ns_graphs;"
	 xmlns="http://www.w3.org/2000/svg" xmlns:xlink="http://www.w3.org/1999/xlink" x="0px" y="0px" width="710.926px"
	 height="710.926px" viewBox="135.917 87.839 710.926 710.926" xml:space="preserve">
<metadata>
	<sfw  xmlns="&ns_sfw;">
		<slices></slices>
		<sliceSourceBounds  height="710.926" width="710.926" x="135.703" y="136.45" bottomLeftOrigin="true"></sliceSourceBounds>
	</sfw>
</metadata>
<path fill="#007CC2" d="M491.381,87.839c-196.066,0-355.463,159.396-355.463,355.463s159.397,355.463,355.463,355.463
	s355.463-159.396,355.463-355.463S687.447,87.839,491.381,87.839z M758.54,307.103h-89.802
	c-11.973-53.881-29.934-101.025-53.881-137.695C676.971,197.845,727.857,246.487,758.54,307.103z M791.467,443.302
	c0,27.689-3.742,55.377-11.225,80.821H678.467c2.994-26.192,4.49-53.132,4.49-80.821s-1.497-54.629-4.49-80.821H780.99
	C787.725,387.925,791.467,415.612,791.467,443.302z M191.295,443.302c0-27.689,3.742-55.377,11.225-80.821h102.523
	c-2.994,26.192-4.49,53.132-4.49,80.821s1.497,54.629,4.49,80.821H202.52C195.037,498.679,191.295,470.991,191.295,443.302z
	 M355.182,443.302c0-26.94,2.245-53.881,5.987-80.821H464.44v161.643H361.169C357.427,497.183,355.182,470.242,355.182,443.302z
	 M519.07,149.95c41.158,19.457,74.086,82.318,92.045,157.9H519.07V149.95z M463.692,149.95v157.9h-92.046
	C389.606,232.269,422.533,169.408,463.692,149.95z M463.692,579.501v157.9c-41.159-19.457-74.086-82.318-92.046-157.9H463.692
	L463.692,579.501z M519.07,736.652v-157.9h92.045C593.155,654.335,560.229,717.195,519.07,736.652z M519.07,524.123V362.48h103.271
	c3.741,26.94,5.986,53.881,5.986,80.821s-2.245,53.881-5.986,80.821H519.07z M367.904,170.156
	c-23.199,36.669-41.907,83.814-53.881,137.695h-89.802C254.904,246.487,305.792,197.845,367.904,170.156z M224.222,579.501h89.802
	c11.973,53.881,29.934,101.025,53.881,137.694C305.792,688.759,254.904,640.116,224.222,579.501z M614.857,716.447
	c23.199-36.669,41.907-83.813,53.881-137.695h89.802C727.857,640.116,676.971,688.759,614.857,716.447z"/>
</svg>
