<?xml version="1.0" encoding="utf-8"?>
<!-- Generator: Adobe Illustrator 16.0.0, SVG Export Plug-In . SVG Version: 6.00 Build 0)  -->
<svg version="1.2" baseProfile="tiny" id="Layer_1" xmlns="http://www.w3.org/2000/svg" xmlns:xlink="http://www.w3.org/1999/xlink"
	 x="0px" y="0px" width="500px" height="500px" viewBox="0 0 500 500" xml:space="preserve">
<path id="XMLID_3_" fill="#9A4993" d="M412.362,174.81c-0.003-6.137-1.315-11.561-3.97-16.215
	c-2.607-4.577-6.512-8.413-11.75-11.446c-43.234-24.929-86.51-49.782-129.73-74.737c-11.651-6.727-22.949-6.481-34.515,0.342
	c-17.208,10.148-103.365,59.51-129.039,74.38c-10.573,6.121-15.718,15.488-15.721,27.664c-0.017,50.134,0,100.267-0.017,150.401
	c0.003,6.003,1.259,11.32,3.797,15.905c2.609,4.715,6.568,8.656,11.926,11.758c25.675,14.871,111.844,64.229,129.048,74.38
	c11.57,6.827,22.868,7.071,34.523,0.342c43.222-24.956,86.5-49.808,129.741-74.736c5.358-3.101,9.317-7.045,11.926-11.757
	c2.534-4.584,3.793-9.901,3.796-15.905C412.379,325.187,412.379,224.945,412.362,174.81"/>
<path id="XMLID_4_" fill="#6A1577" d="M250.497,249.511L91.418,341.105c2.609,4.715,6.568,8.656,11.926,11.758
	c25.675,14.871,111.844,64.229,129.048,74.38c11.57,6.827,22.868,7.071,34.523,0.342c43.222-24.956,86.5-49.808,129.741-74.736
	c5.358-3.101,9.317-7.045,11.926-11.757L250.497,249.511"/>
<path id="XMLID_5_" fill="#6A1577" d="M203.379,276.642c9.257,16.16,26.659,27.061,46.621,27.061
	c20.085,0,37.586-11.038,46.796-27.371l-46.299-26.82L203.379,276.642"/>
<path id="XMLID_6_" fill="#813084" d="M412.362,174.81c-0.003-6.137-1.315-11.561-3.97-16.215l-157.896,90.916l158.086,91.581
	c2.534-4.584,3.793-9.901,3.796-15.905C412.379,325.187,412.379,224.945,412.362,174.81"/>
<path id="XMLID_9_" fill="#FFFFFF" d="M296.796,276.331c-9.21,16.333-26.711,27.371-46.796,27.371
	c-19.962,0-37.364-10.9-46.621-27.061c-4.497-7.853-7.083-16.944-7.083-26.643c0-29.659,24.045-53.702,53.703-53.702
	c19.834,0,37.144,10.764,46.446,26.759l46.939-27.029c-18.657-32.206-53.489-53.874-93.386-53.874
	c-59.563,0-107.847,48.285-107.847,107.846c0,19.54,5.198,37.864,14.284,53.67c18.61,32.376,53.542,54.177,93.563,54.177
	c40.096,0,75.082-21.888,93.665-54.359L296.796,276.331"/>
<g id="XMLID_32_">
	<rect id="XMLID_1_" x="345.441" y="224.5" fill="#FFFFFF" width="10.667" height="51.667"/>
	<rect id="XMLID_30_" x="369.108" y="224.5" fill="#FFFFFF" width="10.666" height="51.667"/>
	<rect id="XMLID_31_" x="336.774" y="233.167" fill="#FFFFFF" width="51.667" height="10.667"/>
	<rect id="XMLID_23_" x="336.774" y="256.833" fill="#FFFFFF" width="51.667" height="10.667"/>
</g>
</svg>
