<?xml version="1.0" encoding="utf-8"?>
<!-- Generator: Adobe Illustrator 16.0.0, SVG Export Plug-In . SVG Version: 6.00 Build 0)  -->
<!DOCTYPE svg [
	<!ENTITY ns_extend "http://ns.adobe.com/Extensibility/1.0/">
	<!ENTITY ns_ai "http://ns.adobe.com/AdobeIllustrator/10.0/">
	<!ENTITY ns_graphs "http://ns.adobe.com/Graphs/1.0/">
	<!ENTITY ns_vars "http://ns.adobe.com/Variables/1.0/">
	<!ENTITY ns_imrep "http://ns.adobe.com/ImageReplacement/1.0/">
	<!ENTITY ns_sfw "http://ns.adobe.com/SaveForWeb/1.0/">
	<!ENTITY ns_custom "http://ns.adobe.com/GenericCustomNamespace/1.0/">
	<!ENTITY ns_adobe_xpath "http://ns.adobe.com/XPath/1.0/">
]>
<svg version="1.2" baseProfile="tiny" id="Layer_1" xmlns:x="&ns_extend;" xmlns:i="&ns_ai;" xmlns:graph="&ns_graphs;"
	 xmlns="http://www.w3.org/2000/svg" xmlns:xlink="http://www.w3.org/1999/xlink" x="0px" y="0px" width="500px" height="500px"
	 viewBox="0 0 500 500" xml:space="preserve">
<metadata>
	<sfw  xmlns="&ns_sfw;">
		<slices></slices>
		<sliceSourceBounds  width="164.359" height="365" x="167.821" y="-432.5" bottomLeftOrigin="true"></sliceSourceBounds>
	</sfw>
</metadata>
<g id="XMLID_1_">
	<path id="XMLID_3_" fill="#D34A47" d="M294.626,421.496l3.502-58.353l9.669-16.506c0,0-22.008,9.003-58.853,9.003
		c-36.846,0-58.52-8.837-58.52-8.837l10.837,18.006l3.833,56.687c0,6.078,20.042,11.004,44.766,11.004
		C274.583,432.5,294.626,427.574,294.626,421.496"/>
	<path id="XMLID_4_" fill="#D34A47" d="M283.579,148.997l7.351-29.054l40.705-42.831l-10.729-9.138L277.812,113.6l-8.534,34.711
		c-6.184-0.209-12.638-0.321-19.277-0.321c-45.386,0-82.18,5.173-82.18,11.552c0,6.38,36.793,11.552,82.18,11.552
		s82.179-5.172,82.179-11.552C332.18,154.845,312.225,150.802,283.579,148.997"/>
	<path id="XMLID_5_" fill="#FFFFFF" d="M279.304,165.268c0,0-1.592,0.357-6.274,0.377c-4.685,0.02-8.011-0.03-9.335-1.237
		c-0.356-0.324-0.551-0.967-0.549-1.403c0.003-0.83,0.592-1.318,1.342-1.624l0.709,1.113c-0.309,0.106-0.484,0.232-0.485,0.366
		c-0.002,0.63,4.789,1.061,8.455,1.015c3.665-0.045,8.095-0.347,8.099-0.968c0-0.188-0.335-0.365-0.918-0.504l0.706-1.105
		c0.95,0.295,1.779,0.865,1.777,1.851C282.821,164.825,280.688,165.08,279.304,165.268"/>
	<path id="XMLID_6_" fill="#D34A47" d="M331.555,77.196c1.023-1.182-0.529-4.206-3.469-6.753c-2.94-2.546-6.154-3.652-7.18-2.469
		c-1.024,1.182,0.529,4.206,3.471,6.751C327.315,77.271,330.53,78.379,331.555,77.196"/>
	<path id="XMLID_7_" fill="#D34A47" d="M292.668,278.964c-0.965-9.281,20.302-22.725,14.844-23.154
		c-11.749,0.672-17.597,13.769-23.508,27.486c-2.166,5.027-9.578,26.465-14.44,23.825c-4.86-2.638,6.302-20.266,9.43-30.735
		c-3.609,2.647-16.848,12.933-20.259,3.3c-5.485,4.659-17.206,7.183-15.883-5.054c-2.918,5.168-9.467,12.385-17.328,9.386
		c-10.323-3.937,5.982-36.821,10.036-35.162c4.055,1.659-0.818,9.149-2.094,12.059c-2.807,6.401-6.05,14.45-3.884,16.098
		c3.711,2.822,13.81-10.678,14.035-10.975c1.889-2.495,7.27-18.82,11.607-16.946c4.337,1.875-10.818,23.429-5.152,27.707
		c1.143,0.863,5.819-0.532,8.664-3.609c1.84-1.991,1.207-6.4,7.342-21.03c6.135-14.629,11.602-32.848,15.81-31.46
		c4.207,1.387,0.739,10.738-0.771,14.224c-7.082,16.36-19.33,43.39-13.554,41.344c5.775-2.046,8.783-2.166,14.439-8.784
		c5.656-6.619,5.396-17.521,9.165-17.29c3.771,0.232,3.138,3.728,2.224,6.39c3.71-4.246,17.588-13.188,20.938-4.332
		c3.969,10.485-19.854,25.631-13.914,24.858c5.791-0.753,15.174-6.695,19.18-12.099l11.026-99.132c0,0-11.096,9.182-81.686,9.182
		s-80.538-8.991-80.538-8.991l9.388,90.484c4.983-14.162,16.815-42.808,35.466-41.846c8.484,0.438,19.811,16.774,10.108,17.328
		c-4.106,0.233-4.523-8.155-9.386-9.386c-3.509-0.89-8.395,1.963-11.552,5.054c-6.297,6.163-19.839,30.476-18.05,42.598
		c2.28,15.453,21.325-5.37,24.548-11.553c2.27-4.355,3.803-17.258,8.766-15.904c4.964,1.354-0.433,14.67-4.031,26.442
		c-4.042,13.221-6.167,27.166-11.233,25.562c-5.067-1.603,3.187-18.669,2.888-21.659c-4.762,4.394-13.536,15.517-24.76,10.011
		l5.831,56.19c0,0,15.495,12.243,62.173,12.243s62.747-12.053,62.747-12.053l7.239-65.081
		C312.613,280.267,293.868,290.509,292.668,278.964"/>
</g>
</svg>
