<?xml version="1.0" encoding="utf-8"?>
<!-- Generator: Adobe Illustrator 16.0.0, SVG Export Plug-In . SVG Version: 6.00 Build 0)  -->
<!DOCTYPE svg [
	<!ENTITY ns_extend "http://ns.adobe.com/Extensibility/1.0/">
	<!ENTITY ns_ai "http://ns.adobe.com/AdobeIllustrator/10.0/">
	<!ENTITY ns_graphs "http://ns.adobe.com/Graphs/1.0/">
	<!ENTITY ns_vars "http://ns.adobe.com/Variables/1.0/">
	<!ENTITY ns_imrep "http://ns.adobe.com/ImageReplacement/1.0/">
	<!ENTITY ns_sfw "http://ns.adobe.com/SaveForWeb/1.0/">
	<!ENTITY ns_custom "http://ns.adobe.com/GenericCustomNamespace/1.0/">
	<!ENTITY ns_adobe_xpath "http://ns.adobe.com/XPath/1.0/">
]>
<svg version="1.2" baseProfile="tiny" id="Layer_1" xmlns:x="&ns_extend;" xmlns:i="&ns_ai;" xmlns:graph="&ns_graphs;"
	 xmlns="http://www.w3.org/2000/svg" xmlns:xlink="http://www.w3.org/1999/xlink" x="0px" y="0px" width="481.89px"
	 height="170.08px" viewBox="0 0 481.89 170.08" xml:space="preserve">
<metadata>
	<sfw  xmlns="&ns_sfw;">
		<slices></slices>
		<sliceSourceBounds  width="470" height="163.961" x="5.5" y="-166.666" bottomLeftOrigin="true"></sliceSourceBounds>
	</sfw>
</metadata>
<g>
	<rect x="214.494" y="63.589" fill="#4E8EF7" width="3.391" height="64.164"/>
	<path fill="#4E8EF7" d="M266.065,62.016c-19.25,0-33.772,14.528-33.772,33.656c0,19.248,14.522,33.656,33.772,33.656
		c19.251,0,33.778-14.408,33.778-33.656C299.841,76.543,285.314,62.016,266.065,62.016z M266.065,126.182
		c-17.31,0-30.386-13.078-30.386-30.51c0-17.434,13.074-30.507,30.386-30.507c17.313,0,30.391,13.074,30.391,30.507
		C296.453,113.102,283.376,126.182,266.065,126.182z"/>
	<path fill="#4E8EF7" d="M363.882,68.431c-7.265-5.932-15.979-6.416-20.459-6.416c-10.167,0-21.43,4.722-25.421,13.923h-0.244
		V63.589h-3.392v64.164h3.392V90.827c0-16.1,9.929-25.665,26.028-25.665c9.685,0,14.889,3.147,18.156,6.052
		c4.844,4.359,7.869,11.502,7.869,22.638v33.9h3.395v-33.9C373.206,82.353,370.18,73.758,363.882,68.431z"/>
	<rect x="391.968" y="63.589" fill="#4E8EF7" width="3.391" height="64.164"/>
	<path fill="#4E8EF7" d="M443.538,126.182c-16.345,0-30.387-12.353-30.387-30.51c0-8.716,3.629-17.19,8.837-21.915
		c6.66-5.93,12.588-8.593,21.672-8.593c12.587,0,23.727,7.02,28.086,19.247h3.754c-5.085-15.131-18.889-22.395-31.962-22.395
		c-19.49,0-33.776,14.769-33.776,33.776c0,19.976,15.133,33.534,33.776,33.534c15.257,0,27.361-8.717,31.839-21.792h-3.75
		C468.479,117.1,458.067,126.182,443.538,126.182z"/>
	<circle fill="#4E8EF7" cx="216.189" cy="43.701" r="3.66"/>
	<circle fill="#4E8EF7" cx="393.661" cy="43.701" r="3.66"/>
	<circle fill="#4E8EF7" cx="87.48" cy="84.684" r="33.473"/>
	<path fill="#4E8EF7" d="M155.788,27.889c0-6.359-5.154-11.509-11.512-11.509c-2.883,0-5.511,1.067-7.531,2.821
		C123.02,8.849,105.955,2.705,87.48,2.705c-45.206,0-81.98,36.777-81.98,81.98c0,45.202,36.776,81.981,81.98,81.981
		c45.203,0,81.98-36.779,81.98-81.981c0-18.475-6.146-35.539-16.496-49.265C154.719,33.4,155.788,30.771,155.788,27.889z
		 M87.48,163.909c-43.683,0-79.225-35.543-79.225-79.225C8.256,41.001,43.798,5.46,87.48,5.46c17.762,0,34.175,5.876,47.402,15.785
		c-1.328,1.877-2.117,4.166-2.117,6.641c0,6.358,5.153,11.51,11.509,11.51c2.477,0,4.763-0.788,6.642-2.118
		c9.91,13.228,15.785,29.641,15.785,47.404C166.702,128.368,131.164,163.909,87.48,163.909z"/>
</g>
</svg>
