<?xml version="1.0" encoding="utf-8"?>
<!-- Generator: Adobe Illustrator 16.0.0, SVG Export Plug-In . SVG Version: 6.00 Build 0)  -->
<!DOCTYPE svg [
	<!ENTITY ns_extend "http://ns.adobe.com/Extensibility/1.0/">
	<!ENTITY ns_ai "http://ns.adobe.com/AdobeIllustrator/10.0/">
	<!ENTITY ns_graphs "http://ns.adobe.com/Graphs/1.0/">
	<!ENTITY ns_vars "http://ns.adobe.com/Variables/1.0/">
	<!ENTITY ns_imrep "http://ns.adobe.com/ImageReplacement/1.0/">
	<!ENTITY ns_sfw "http://ns.adobe.com/SaveForWeb/1.0/">
	<!ENTITY ns_custom "http://ns.adobe.com/GenericCustomNamespace/1.0/">
	<!ENTITY ns_adobe_xpath "http://ns.adobe.com/XPath/1.0/">
]>
<svg version="1.2" baseProfile="tiny" id="Layer_1" xmlns:x="&ns_extend;" xmlns:i="&ns_ai;" xmlns:graph="&ns_graphs;"
	 xmlns="http://www.w3.org/2000/svg" xmlns:xlink="http://www.w3.org/1999/xlink" x="0px" y="0px" width="2500px" height="2229px"
	 viewBox="0 0 2500 2229" xml:space="preserve">
<metadata>
	<sfw  xmlns="&ns_sfw;">
		<slices></slices>
		<sliceSourceBounds  height="2228.994" width="2499.672" x="-769.329" y="-852.458" bottomLeftOrigin="true"></sliceSourceBounds>
	</sfw>
</metadata>
<title>Slice 1</title>
<path fill="#E88634" d="M1.171,1122.999c8.818,287.629,564.954,513.821,1249.725,513.821v-111.124
	c-551.191-2.749-1129.366-171.575-1138.628-402.697H1.171z"/>
<path fill="#F9CB52" d="M1869.191,64.554c-253.495-136.177-727.447,232.373-1069.86,825.392l96.237,55.563
	c277.964-475.979,713.281-892.272,918.061-784.731L1869.191,64.554L1869.191,64.554z"/>
<path fill="#E88634" d="M1.171,1122.999C9.99,835.37,566.125,609.178,1250.896,609.178v111.124
	c-551.191,2.75-1129.366,171.589-1138.628,402.697H1.171z"/>
<path fill="#F4A73E" d="M626.576,39.808c-244.69,151.452-162.507,746.18,179.879,1339.214l96.237-55.576
	C629.465,844.744,486.608,259.598,682.124,136.045L626.576,39.808z"/>
<path fill="#F9CB52" d="M626.576,2212.245c-244.69-151.452-162.521-746.193,179.879-1339.214l96.237,55.563
	c-273.229,478.715-416.084,1063.861-220.568,1187.428L626.576,2212.245L626.576,2212.245z"/>
<path fill="#F4A73E" d="M612.092,46.751C865.6-89.426,1339.552,279.109,1681.951,872.143l-96.251,55.549
	C1307.736,451.726,872.419,35.461,667.64,142.988L612.092,46.751z"/>
<path fill="#E88634" d="M2500.733,1122.999c-8.818-287.629-564.981-513.821-1249.726-513.821v111.124
	c551.178,2.75,1129.366,171.589,1138.629,402.697H2500.733z"/>
<path fill="#F9CB52" d="M615.438,2213.148c1.485,0.902,2.972,1.791,4.472,2.639c251.953,145.48,730.779-224.221,1075.915-821.99
	l-95.724-56.465c-280.158,480.215-720.726,899.993-923.505,782.911c-2.055-1.183-4.078-2.419-6.068-3.707L615.438,2213.148
	L615.438,2213.148z"/>
<path fill="#F4A73E" d="M1876.315,2205.33c-253.536,136.093-727.446-232.442-1069.805-825.42l-3.61-6.249l94.932-57.757
	c277.52,479.132,716.364,900.743,922.532,793.41L1876.315,2205.33L1876.315,2205.33z"/>
<path fill="#E88634" d="M2500.733,1109.112c0.069,2.305,0.11,4.624,0.11,6.943c0,290.934-559.579,520.765-1249.836,520.765v-111.124
	c555.649-2.749,1138.74-174.353,1138.74-408.321c0-2.756-0.083-5.512-0.25-8.263H2500.733z"/>
<path fill="#F4A73E" d="M1861.998,2212.162c244.523-151.563,162.312-746.208-180.005-1339.131l-6.097-10.554l-97.515,53.257
	l0.652,1.139c277.075,479.909,423.848,1072.276,228.442,1198.427L1861.998,2212.162L1861.998,2212.162z"/>
<path fill="#F9CB52" d="M1868.594,57.611c244.676,151.452,162.492,746.194-179.879,1339.213l-96.237-55.563
	c273.241-478.715,416.07-1063.86,220.568-1187.428L1868.594,57.611L1868.594,57.611z"/>
<rect x="214.5" y="1664" fill="none" width="2072" height="380"/>
<text transform="matrix(1 0 0 1 369.6929 1862.1182)" fill="#F26816" stroke="#FFE100" stroke-miterlimit="10" font-family="'Roboto-Regular'" font-size="260">R</text>
<text transform="matrix(1 0 0 1 566.1484 1862.1182)" fill="#F26816" stroke="#FFE100" stroke-miterlimit="10" font-family="'Roboto-Regular'" font-size="260">e</text>
<text transform="matrix(1 0 0 1 727.8184 1862.1182)" fill="#F26816" stroke="#FFE100" stroke-miterlimit="10" font-family="'Roboto-Regular'" font-size="260">a</text>
<text transform="matrix(1 0 0 1 894.9478 1862.1182)" fill="#F26816" stroke="#FFE100" stroke-miterlimit="10" font-family="'Roboto-Regular'" font-size="260">c</text>
<text transform="matrix(1 0 0 1 1057.126 1862.1182)" fill="#F26816" stroke="#FFE100" stroke-miterlimit="10" font-family="'Roboto-Regular'" font-size="260">t</text>
<text transform="matrix(1 0 0 1 1171.1885 1862.1182)" fill="#F26816" stroke="#FFE100" stroke-miterlimit="10" font-family="'Roboto-Regular'" font-size="260"> </text>
<text transform="matrix(1 0 0 1 1259.9873 1862.1182)" fill="#F26816" stroke="#FFE100" stroke-miterlimit="10" font-family="'Roboto-Regular'" font-size="260">N</text>
<text transform="matrix(1 0 0 1 1469.6465 1862.1182)" fill="#F26816" stroke="#FFE100" stroke-miterlimit="10" font-family="'Roboto-Regular'" font-size="260">a</text>
<text transform="matrix(1 0 0 1 1636.7764 1862.1182)" fill="#F26816" stroke="#FFE100" stroke-miterlimit="10" font-family="'Roboto-Regular'" font-size="260">t</text>
<text transform="matrix(1 0 0 1 1750.8389 1862.1182)" fill="#F26816" stroke="#FFE100" stroke-miterlimit="10" font-family="'Roboto-Regular'" font-size="260">i</text>
<text transform="matrix(1 0 0 1 1840.5264 1862.1182)" fill="#F26816" stroke="#FFE100" stroke-miterlimit="10" font-family="'Roboto-Regular'" font-size="260">v</text>
<text transform="matrix(1 0 0 1 1993.8174 1862.1182)" fill="#F26816" stroke="#FFE100" stroke-miterlimit="10" font-family="'Roboto-Regular'" font-size="260">e</text>
</svg>
